<?xml version="1.0" encoding="UTF-8"?><svg xmlns="http://www.w3.org/2000/svg" width="37.2" height="98.29" viewBox="0 0 37.2 98.29"><g id="Layer_1-2"><path d="M18.9,37.11c-.11-3.13-.45-6.23-1.23-9.23-1.38-5.33-3.7-10.39-6.64-15.03-1.53-2.41-3.22-4.7-5.08-6.87-.91-1.07-1.87-2.1-2.86-3.1C2.31,2.09,1.05.39,0,0c5.45,2,10.84,4.19,16.18,6.48,12.09,5.21,22.03,15.09,20.95,29.4-1.13-4.88-3.76-9.4-7.44-12.8-.1,4.69-.39,9.38-.39,14.06v46.4c0,2.48.07,4.51.22,6.11.15,1.6.4,2.95.76,4.04.36,1.09.87,1.98,1.53,2.68.66.69,1.53,1.33,2.62,1.91H12.48c1.09-.58,1.97-1.22,2.62-1.91.66-.69,1.16-1.58,1.53-2.68.36-1.09.62-2.44.76-4.04.81-8.86,1.05-17.76,1.19-26.65s.61-17.3.32-25.91Z" fill="currentColor" stroke-width="0"/></g></svg>