<svg xmlns="http://www.w3.org/2000/svg" viewBox="0 0 63.85 63.63"><g id="Layer_3"><path d="m12.02,19.8c6.28.01,11.47,4.85,11.95,11.11.08,1.01.1,2.05.36,3.02.82,3.11,3.49,5.35,6.72,5.6,2.1.16,4.15.35,6.07,1.31,4.97,2.48,7.62,8.03,6.38,13.46-1.22,5.36-6.02,9.25-11.53,9.33-6.38.1-11.74-4.87-12.16-11.22-.07-1.11-.15-2.26-.48-3.32-.97-3.1-3.79-5.13-7.17-5.23-2.89-.09-5.49-.9-7.75-2.74-3.94-3.21-5.43-8.56-3.7-13.38,1.7-4.75,6.27-7.96,11.31-7.95Zm11.87,31.78c-.01,4.39,3.52,7.94,7.89,7.95,4.36,0,7.93-3.57,7.92-7.93,0-4.35-3.52-7.87-7.87-7.89-4.41-.02-7.93,3.47-7.95,7.87Zm-11.88-11.86c4.39,0,7.91-3.54,7.9-7.93-.01-4.36-3.5-7.85-7.87-7.88-4.37-.03-7.93,3.51-7.95,7.89-.01,4.38,3.53,7.92,7.92,7.92Z" style="fill:#fff;"/><path d="m16.64,18.5c2.45-1.82,3.49-4.17,3.44-7.06,0-.59.12-1.2.23-1.78C21.44,3.88,26.83-.33,32.61.02c6.2.38,11.07,5.09,11.42,11.14.11,1.96.32,3.87,1.58,5.47.53.67,1.16,1.24,1.78,1.9-4.28,1.57-7.23,4.51-8.85,8.92-1.66-2.19-3.78-3.39-6.46-3.39-2.69,0-4.81,1.19-6.48,3.39-1.6-4.38-4.53-7.33-8.97-8.95Zm15.48,1.43c4.36-.02,7.85-3.52,7.86-7.88,0-4.39-3.53-7.95-7.9-7.94-4.37,0-7.94,3.6-7.91,7.94.03,4.4,3.56,7.89,7.96,7.88Z" style="fill:#fff;"/><path d="m45.35,47.11c-1.57-4.27-4.5-7.21-8.79-8.78.02-.07.02-.14.05-.17,2.22-1.72,3.15-4,3.28-6.79.3-6.4,4.94-11.05,11.33-11.54,6.18-.47,12.01,4.47,12.57,10.65.59,6.55-3.53,12.01-9.97,13.18-.64.12-1.3.16-1.95.17-2.54.04-4.59,1.07-6.17,3.04-.06.08-.14.15-.21.23-.01.01-.05,0-.13.01Zm6.52-7.39c4.38,0,7.93-3.57,7.9-7.93-.03-4.36-3.52-7.86-7.88-7.88-4.38-.02-7.93,3.51-7.93,7.9,0,4.39,3.52,7.92,7.91,7.92Z" style="fill:#fff;"/><path d="m23.89,51.58c.01-4.4,3.54-7.89,7.95-7.87,4.35.02,7.86,3.53,7.87,7.89,0,4.36-3.56,7.94-7.92,7.93-4.37,0-7.9-3.56-7.89-7.95Z"/><path d="m12.01,39.72c-4.38,0-7.93-3.55-7.92-7.92.01-4.38,3.57-7.92,7.95-7.89,4.37.03,7.86,3.52,7.87,7.88.01,4.39-3.51,7.93-7.9,7.93Z"/><path d="m32.12,19.93c-4.4.02-7.93-3.48-7.96-7.88-.03-4.34,3.55-7.94,7.91-7.94,4.37,0,7.91,3.55,7.9,7.94,0,4.37-3.5,7.87-7.86,7.88Z"/><path d="m51.87,39.73c-4.39,0-7.91-3.53-7.91-7.92,0-4.39,3.55-7.92,7.93-7.9,4.36.02,7.85,3.52,7.88,7.88.03,4.37-3.52,7.93-7.9,7.93Z"/></g></svg>